<?xml version="1.0" encoding="utf-8"?>
<!-- Generator: Adobe Illustrator 15.0.0, SVG Export Plug-In . SVG Version: 6.00 Build 0)  -->
<!DOCTYPE svg PUBLIC "-//W3C//DTD SVG 1.1//EN" "http://www.w3.org/Graphics/SVG/1.1/DTD/svg11.dtd">
<svg version="1.1" id="Layer_2_copy" xmlns="http://www.w3.org/2000/svg" xmlns:xlink="http://www.w3.org/1999/xlink" x="0px"
	 y="0px" width="1200px" height="1200px" viewBox="0 0 1200 1200" enable-background="new 0 0 1200 1200" xml:space="preserve">
<path fill="#FF9900" d="M651,915.884c0,13.307-2.025,25.426-6.076,36.368c-4.049,10.943-9.784,20.276-17.21,28.001
	c-7.424,7.724-16.366,13.733-26.826,18.023c-10.462,4.289-21.993,6.437-34.589,6.437c-12.603,0-24.076-2.147-34.421-6.437
	c-10.351-4.29-19.235-10.3-26.659-18.023c-7.424-7.725-13.219-17.058-17.379-28.001c-4.165-10.942-6.242-23.062-6.242-36.368
	c0-13.301,2.077-25.37,6.242-36.207c4.16-10.832,10.008-20.115,17.549-27.84c7.533-7.725,16.477-13.679,26.826-17.862
	c10.346-4.185,21.709-6.276,34.084-6.276c12.369,0,23.79,2.092,34.251,6.276c10.462,4.184,19.402,10.138,26.828,17.862
	c7.424,7.725,13.213,17.008,17.378,27.84C648.917,890.514,651,902.583,651,915.884z M613.667,915.884
	c0-16.736-4.166-29.981-12.495-39.748c-8.333-9.761-19.953-14.644-34.873-14.644s-26.547,4.883-34.875,14.644
	c-8.334,9.767-12.494,23.012-12.494,39.748c0,16.952,4.16,30.364,12.494,40.23c8.328,9.872,19.955,14.805,34.875,14.805
	s26.54-4.933,34.873-14.805C609.501,946.248,613.667,932.836,613.667,915.884z"/>
<path fill="#FF9900" d="M455.402,915.884c0,13.307-2.025,25.426-6.076,36.368c-4.049,10.943-9.784,20.276-17.21,28.001
	c-7.424,7.724-16.366,13.733-26.826,18.023c-10.462,4.289-21.993,6.437-34.589,6.437c-12.603,0-24.076-2.147-34.421-6.437
	c-10.351-4.29-19.235-10.3-26.659-18.023c-7.424-7.725-13.219-17.058-17.379-28.001C288.077,941.31,286,929.19,286,915.884
	c0-13.301,2.077-25.37,6.243-36.207c4.16-10.832,10.007-20.115,17.548-27.84c7.534-7.725,16.477-13.679,26.827-17.862
	c10.346-4.185,21.709-6.276,34.084-6.276c12.369,0,23.79,2.092,34.251,6.276c10.462,4.184,19.402,10.138,26.828,17.862
	c7.424,7.725,13.213,17.008,17.378,27.84C453.319,890.514,455.402,902.583,455.402,915.884z M418.069,915.884
	c0-16.736-4.166-29.981-12.495-39.748c-8.333-9.761-19.953-14.644-34.873-14.644s-26.547,4.883-34.875,14.644
	c-8.334,9.767-12.494,23.012-12.494,39.748c0,16.952,4.16,30.364,12.494,40.23c8.328,9.872,19.955,14.805,34.875,14.805
	s26.54-4.933,34.873-14.805C413.903,946.248,418.069,932.836,418.069,915.884z"/>
<path fill="#FF9900" d="M911.071,988.667v-82.082c0-11.37-0.915-21.83-2.735-31.38c-1.825-9.545-5.149-17.701-9.978-24.46
	c-4.827-6.759-11.48-12.014-19.954-15.771c-8.479-3.752-19.26-5.633-32.345-5.633c-5.149,0-10.249,0.538-15.288,1.609
	c-5.044,1.076-9.816,2.414-14.322,4.023s-8.584,3.379-12.229,5.311c-3.651,1.931-6.653,3.756-9.012,5.471
	c-4.938-4.933-11.104-8.9-18.506-11.908c-7.403-3.002-16.897-4.506-28.483-4.506c-13.518,0-26.341,0.966-38.461,2.896
	c-12.124,1.932-21.94,3.974-29.448,6.115v150.313c0,10.768,8.729,15.163,19.496,15.163c10.768,0,19.496-4.396,19.497-15.163h-0.05
	V865.389c2.574-0.428,6.437-0.966,11.586-1.609s9.866-0.965,14.161-0.965c12.014,0,20.221,3.917,24.621,11.747
	c4.396,7.835,6.598,20.548,6.598,38.139v75.967h-0.025c0,10.768,8.729,15.163,19.496,15.163c10.768,0,19.496-4.396,19.497-15.163
	h-0.024v-80.473c0-6.864-0.322-13.302-0.966-19.311c-0.644-6.005-1.825-11.692-3.54-17.059c2.786-1.931,6.97-3.912,12.552-5.954
	c5.577-2.036,11.476-3.057,17.702-3.057c12.229,0,20.487,3.917,24.781,11.747c4.29,7.835,6.438,20.548,6.438,38.139v75.967h-0.051
	c0,10.768,8.729,15.163,19.496,15.163C902.342,1003.83,911.07,999.434,911.071,988.667z"/>
<path fill="#FF9900" d="M569.914,287v273.91c0,16.615,13.471,23.398,30.086,23.398c16.616,0,30.086-6.784,30.086-23.398h-0.075V287"
	/>
<path fill="#FF9900" d="M600,256.071c62.281,0,120.836,22.2,164.875,66.239c44.043,44.04,68.295,102.595,68.293,164.877
	c0.002,63.021-25.322,113.884-73.234,147.088c-39.89,27.645-95.195,41.229-159.938,41.229
	c-64.737-0.001-120.039-13.586-159.926-41.229c-47.91-33.205-73.235-84.066-73.237-147.088
	c0.002-62.285,24.256-120.839,68.295-164.877C479.166,278.271,537.719,256.071,600,256.071z M599.996,622.284
	c54.369,0,97.075-11.065,127.287-32.002c30.924-21.433,47.956-58.288,47.955-101.198c0.002-46.81-18.226-96.396-51.325-129.493
	c-33.099-33.099-77.105-51.326-123.913-51.326c-50.738,0-96.509,21.676-128.54,56.255c-28.969,31.273-46.697,78.677-46.699,124.564
	c0.003,42.908,17.036,79.765,47.96,101.197C502.93,611.217,545.632,622.283,599.996,622.284z"/>
<path fill="#FF9900" d="M294.568,598.288c8.791,21.222,24.58,34.835,45.802,26.045s31.298-33.118,22.507-54.339
	c-8.789-21.222-33.116-31.3-54.34-22.51C287.316,556.275,285.778,577.066,294.568,598.288z"/>
<path fill="#FF9900" d="M688.959,249.048c21.22,8.789,45.549-1.287,54.338-22.508c8.791-21.223-4.823-37.012-26.044-45.801
	c-21.222-8.791-42.015-7.251-50.804,13.969C657.66,215.93,667.736,240.257,688.959,249.048z"/>
<path fill="#FF9900" d="M476.834,754.488c21.009,9.286,41.832,8.234,51.117-12.773c9.287-21.009-0.216-45.567-21.225-54.854
	c-21.008-9.285-45.566,0.217-54.854,21.225C442.587,729.096,455.827,745.201,476.834,754.488z"/>
<path fill="#FF9900" d="M723.537,754.488c-21.009,9.286-41.832,8.234-51.117-12.773c-9.287-21.009,0.216-45.567,21.225-54.854
	c21.008-9.285,45.566,0.217,54.854,21.225C757.784,729.096,744.544,745.201,723.537,754.488z"/>
<path fill="#FF9900" d="M511.042,249.048c21.219-8.791,31.298-33.119,22.508-54.34c-8.791-21.222-29.583-22.76-50.804-13.969
	c-21.221,8.789-34.834,24.58-26.045,45.801S489.82,257.837,511.042,249.048z"/>
<path fill="#FF9900" d="M905.432,598.289c8.789-21.222,7.25-42.016-13.971-50.805c-21.221-8.791-45.551,1.289-54.34,22.51
	s1.287,45.547,22.508,54.339C880.85,633.121,896.641,619.508,905.432,598.289z"/>
<path fill="#FF9900" d="M675.146,505.115c-7.032,16.978-5.8,33.613,11.177,40.644c16.977,7.034,36.44-1.03,43.472-18.007
	s-1.03-36.438-18.007-43.472C694.811,477.249,682.178,488.14,675.146,505.115z"/>
<path fill="#FF9900" d="M527.114,503.736c7.032,16.978,5.8,33.613-11.177,40.644c-16.977,7.034-36.44-1.03-43.471-18.007
	c-7.031-16.977,1.03-36.438,18.007-43.472C507.45,475.87,520.083,486.761,527.114,503.736z"/>
<path fill="#FF9900" d="M829.852,377.539c8.791,21.221,33.119,31.297,54.34,22.508c21.222-8.791,22.76-29.583,13.97-50.803
	c-8.79-21.222-24.58-34.836-45.801-26.047C831.139,331.988,821.062,356.318,829.852,377.539z"/>
<path fill="#FF9900" d="M370.148,377.537c8.789-21.219-1.289-45.549-22.509-54.34c-21.223-8.789-37.012,4.825-45.802,26.045
	c-8.79,21.221-7.251,42.014,13.971,50.805C337.027,408.836,361.357,398.76,370.148,377.537z"/>
</svg>
