<?xml version="1.0" encoding="utf-8"?>
<!-- Generator: Adobe Illustrator 15.0.0, SVG Export Plug-In . SVG Version: 6.00 Build 0)  -->
<!DOCTYPE svg PUBLIC "-//W3C//DTD SVG 1.1//EN" "http://www.w3.org/Graphics/SVG/1.1/DTD/svg11.dtd">
<svg version="1.1" id="Layer_2_copy" xmlns="http://www.w3.org/2000/svg" xmlns:xlink="http://www.w3.org/1999/xlink" x="0px"
	 y="0px" width="1200px" height="1200px" viewBox="0 0 1200 1200" enable-background="new 0 0 1200 1200" xml:space="preserve">
<circle fill="#ff9900" cx="600" cy="600" r="550"/>
<path fill="#FFFFFF" d="M600,244.381c113.561,0,205.619,92.059,205.619,205.619c0,113.559-92.059,205.619-205.619,205.619
	S394.381,563.559,394.381,450C394.381,336.439,486.439,244.381,600,244.381z M461.664,450c0,76.4,61.936,138.336,138.336,138.336
	c76.402,0,138.336-61.936,138.336-138.336S676.402,311.664,600,311.664C523.6,311.664,461.664,373.6,461.664,450z"/>
<path fill="#FFFFFF" d="M365,450c0-24.854-20.147-45-45-45c-24.853,0-35,20.146-35,45c0,24.853,10.147,45,35,45
	C344.853,495,365,474.853,365,450z"/>
<path fill="#FFFFFF" d="M915,450c0-24.854-10.147-45-35-45c-24.854,0-45,20.146-45,45c0,24.853,20.146,45,45,45
	C904.853,495,915,474.853,915,450z"/>
<path fill="#FFFFFF" d="M433.829,616.17c-17.573-17.573-46.065-17.573-63.639,0c-17.574,17.574-10.503,38.995,7.07,56.568
	c17.574,17.574,38.996,24.645,56.569,7.071S451.403,633.744,433.829,616.17z"/>
<path fill="#FFFFFF" d="M822.739,227.262c-17.574-17.574-38.996-24.645-56.569-7.071c-17.574,17.574-17.573,46.065,0,63.64
	c17.573,17.573,46.065,17.574,63.64,0C847.383,266.257,840.312,244.834,822.739,227.262z"/>
<path fill="#FFFFFF" d="M599.999,685C575.147,685,555,705.147,555,730c0,24.854,20.147,35,44.999,35c24.854,0,45-10.148,45.001-35
	C645,705.147,624.853,685,599.999,685z"/>
<path fill="#FFFFFF" d="M600.001,135c-24.854,0-45.002,10.148-45.001,35c-0.001,24.854,20.147,45,45,45s44.999-20.146,45-45
	C644.999,145.148,624.852,135,600.001,135z"/>
<path fill="#FFFFFF" d="M766.169,616.171c-17.572,17.572-17.572,46.065,0.001,63.639c17.574,17.574,38.995,10.503,56.567-7.069
	c17.574-17.574,24.645-38.996,7.072-56.57C812.236,598.597,783.743,598.597,766.169,616.171z"/>
<path fill="#FFFFFF" d="M377.261,227.26c-17.573,17.574-24.645,38.998-7.07,56.57c17.573,17.575,46.066,17.572,63.639,0
	c17.574-17.573,17.574-46.064,0.001-63.64C416.256,202.618,394.834,209.688,377.261,227.26z"/>
<path fill="#FFFFFF" d="M651,895.884c0,13.307-2.025,25.426-6.076,36.368c-4.049,10.943-9.784,20.276-17.21,28.001
	c-7.424,7.724-16.366,13.733-26.826,18.023c-10.462,4.289-21.993,6.437-34.589,6.437c-12.603,0-24.076-2.147-34.421-6.437
	c-10.351-4.29-19.235-10.3-26.659-18.023c-7.424-7.725-13.219-17.058-17.379-28.001c-4.165-10.942-6.242-23.062-6.242-36.368
	c0-13.301,2.077-25.37,6.242-36.207c4.16-10.832,10.008-20.115,17.549-27.84c7.533-7.725,16.477-13.679,26.826-17.862
	c10.346-4.185,21.709-6.276,34.084-6.276c12.369,0,23.79,2.092,34.251,6.276c10.462,4.184,19.402,10.138,26.828,17.862
	c7.424,7.725,13.213,17.008,17.378,27.84C648.917,870.514,651,882.583,651,895.884z M613.667,895.884
	c0-16.736-4.166-29.981-12.495-39.748c-8.333-9.761-19.953-14.644-34.873-14.644s-26.547,4.883-34.875,14.644
	c-8.334,9.767-12.494,23.012-12.494,39.748c0,16.952,4.16,30.364,12.494,40.23c8.328,9.872,19.955,14.805,34.875,14.805
	s26.54-4.933,34.873-14.805C609.501,926.248,613.667,912.836,613.667,895.884z"/>
<path fill="#FFFFFF" d="M455.402,895.884c0,13.307-2.025,25.426-6.076,36.368c-4.049,10.943-9.784,20.276-17.21,28.001
	c-7.424,7.724-16.366,13.733-26.826,18.023c-10.462,4.289-21.993,6.437-34.589,6.437c-12.603,0-24.076-2.147-34.421-6.437
	c-10.351-4.29-19.235-10.3-26.659-18.023c-7.424-7.725-13.219-17.058-17.379-28.001C288.077,921.31,286,909.19,286,895.884
	c0-13.301,2.077-25.37,6.243-36.207c4.16-10.832,10.007-20.115,17.548-27.84c7.534-7.725,16.477-13.679,26.827-17.862
	c10.346-4.185,21.709-6.276,34.084-6.276c12.369,0,23.79,2.092,34.251,6.276c10.462,4.184,19.402,10.138,26.828,17.862
	c7.424,7.725,13.213,17.008,17.378,27.84C453.319,870.514,455.402,882.583,455.402,895.884z M418.069,895.884
	c0-16.736-4.166-29.981-12.495-39.748c-8.333-9.761-19.953-14.644-34.873-14.644s-26.547,4.883-34.875,14.644
	c-8.334,9.767-12.494,23.012-12.494,39.748c0,16.952,4.16,30.364,12.494,40.23c8.328,9.872,19.955,14.805,34.875,14.805
	s26.54-4.933,34.873-14.805C413.903,926.248,418.069,912.836,418.069,895.884z"/>
<path fill="#FFFFFF" d="M911.071,968.667v-82.082c0-11.37-0.915-21.83-2.735-31.38c-1.825-9.545-5.149-17.701-9.978-24.46
	c-4.827-6.759-11.48-12.014-19.954-15.771c-8.479-3.752-19.26-5.633-32.345-5.633c-5.149,0-10.249,0.538-15.288,1.609
	c-5.044,1.076-9.816,2.414-14.322,4.023s-8.584,3.379-12.229,5.311c-3.651,1.931-6.653,3.756-9.012,5.471
	c-4.938-4.933-11.104-8.9-18.506-11.908c-7.403-3.002-16.897-4.506-28.483-4.506c-13.518,0-26.341,0.966-38.461,2.896
	c-12.124,1.932-21.94,3.974-29.448,6.115v150.313c0,10.768,8.729,15.163,19.496,15.163c10.768,0,19.496-4.396,19.497-15.163h-0.05
	V845.389c2.574-0.428,6.437-0.966,11.586-1.609s9.866-0.965,14.161-0.965c12.014,0,20.221,3.917,24.621,11.747
	c4.396,7.835,6.598,20.548,6.598,38.139v75.967h-0.025c0,10.768,8.729,15.163,19.496,15.163c10.768,0,19.496-4.396,19.497-15.163
	h-0.024v-80.473c0-6.864-0.322-13.302-0.966-19.311c-0.644-6.005-1.825-11.692-3.54-17.059c2.786-1.931,6.97-3.912,12.552-5.954
	c5.577-2.036,11.476-3.057,17.702-3.057c12.229,0,20.487,3.917,24.781,11.747c4.29,7.835,6.438,20.548,6.438,38.139v75.967h-0.051
	c0,10.768,8.729,15.163,19.496,15.163C902.342,983.83,911.07,979.434,911.071,968.667z"/>
</svg>
