<?xml version="1.0" encoding="utf-8"?>
<!DOCTYPE svg PUBLIC "-//W3C//DTD SVG 1.1//EN" "http://www.w3.org/Graphics/SVG/1.1/DTD/svg11.dtd">
<svg version="1.1" id="Layer_1" xmlns="http://www.w3.org/2000/svg" xmlns:xlink="http://www.w3.org/1999/xlink" x="0px" y="0px"
	 width="853.333px" height="853.333px" viewBox="0 0 853.333 853.333" enable-background="new 0 0 853.333 853.333"
	 xml:space="preserve">
<path d="M386.81,180.421v367.411c0,22.287,18.07,31.386,40.356,31.386c22.289,0,40.357-9.101,40.357-31.386h-0.102V180.421H386.81z"
	/>
<path d="M427.166,138.935c83.542,0,162.084,29.779,221.157,88.851c59.077,59.073,91.607,137.616,91.605,221.159
	c0.002,84.533-33.967,152.759-98.233,197.298c-53.507,37.081-127.691,55.302-214.535,55.302
	c-86.836-0.001-161.015-18.224-214.518-55.302c-64.265-44.54-98.235-112.764-98.237-197.298
	c0.002-83.546,32.536-162.088,91.608-221.159C265.085,168.713,343.625,138.935,427.166,138.935z M427.161,630.157
	c72.929,0,130.213-14.843,170.738-42.926c41.479-28.749,64.326-78.186,64.324-135.743c0.003-62.788-24.446-129.302-68.845-173.696
	c-44.397-44.397-103.426-68.847-166.212-68.847c-68.058,0-129.452,29.075-172.417,75.458
	c-38.857,41.949-62.638,105.534-62.64,167.085c0.004,57.556,22.852,106.993,64.332,135.741
	C296.961,615.311,354.24,630.156,427.161,630.157z"/>
<path d="M17.474,597.969c11.792,28.466,32.971,46.727,61.437,34.936c28.466-11.79,41.981-44.423,30.189-72.888
	c-11.789-28.466-44.42-41.984-72.889-30.193C7.747,541.616,5.684,569.503,17.474,597.969z"/>
<path d="M546.493,129.514c28.463,11.79,61.097-1.726,72.886-30.191c11.792-28.467-6.47-49.646-34.934-61.435
	c-28.466-11.792-56.356-9.726-68.146,18.737C504.509,85.09,518.025,117.722,546.493,129.514z"/>
<path d="M261.957,807.49c28.18,12.456,56.112,11.045,68.566-17.134c12.458-28.181-0.29-61.122-28.47-73.578
	c-28.179-12.455-61.121,0.291-73.578,28.47C216.02,773.429,233.779,795.033,261.957,807.49z"/>
<path d="M592.874,807.49c-28.18,12.456-56.111,11.045-68.566-17.134c-12.457-28.181,0.29-61.122,28.471-73.578
	c28.179-12.455,61.12,0.291,73.577,28.47C638.811,773.429,621.051,795.033,592.874,807.49z"/>
<path d="M307.842,129.514c28.462-11.792,41.981-44.424,30.191-72.889c-11.792-28.466-39.681-30.529-68.146-18.737
	c-28.464,11.789-46.725,32.971-34.936,61.435C246.741,127.788,279.376,141.303,307.842,129.514z"/>
<path d="M836.86,597.971c11.789-28.466,9.725-56.358-18.74-68.147c-28.465-11.792-61.1,1.729-72.889,30.193
	c-11.79,28.465,1.727,61.095,30.19,72.888C803.886,644.693,825.068,626.433,836.86,597.971z"/>
<path d="M527.963,472.992c-9.433,22.772-7.779,45.087,14.992,54.518c22.771,9.435,48.88-1.382,58.311-24.154
	c9.432-22.771-1.382-48.877-24.153-58.311C554.341,435.613,537.396,450.221,527.963,472.992z"/>
<path d="M329.401,471.142c9.433,22.772,7.78,45.087-14.992,54.518c-22.771,9.435-48.879-1.382-58.31-24.154
	c-9.431-22.771,1.382-48.877,24.154-58.311C303.024,433.763,319.969,448.372,329.401,471.142z"/>
<path d="M735.479,301.866c11.792,28.465,44.425,41.98,72.89,30.191c28.466-11.792,30.529-39.681,18.738-68.145
	c-11.79-28.466-32.971-46.727-61.435-34.938C737.206,240.767,723.69,273.402,735.479,301.866z"/>
<path d="M118.854,301.864c11.789-28.462-1.729-61.097-30.192-72.889c-28.467-11.789-49.646,6.472-61.437,34.936
	c-11.791,28.464-9.726,56.355,18.74,68.147C74.427,343.847,107.062,330.331,118.854,301.864z"/>
</svg>
